<svg xmlns="http://www.w3.org/2000/svg" width="1em" height="1em" viewBox="0 0 24 24"><g fill="none"><path fill="url(#tokenBrandedAis0)" d="M6.989 15.924c-.108-1.189-.2-3.8-.233-4.95c.065-.266.433-.455.6-.52c2.487-.016 7.681-.054 8.611-.054c.925 0 1.243.524 1.287.795c-.065.4-.195 1.719-.195 3.805c0 2.605-2.497 7-5.022 7c-2.524 0-4.908-4.59-5.048-6.076"/><path fill="url(#tokenBrandedAis1)" d="M10.016 11.822q-1.278-.067-2.54-.27c.464.264 2.053.783 4.702.783c3.313 0 4.676-.638 4.676-1.027c0-.319-.308-.503-.465-.562l-.427.092a.27.27 0 0 1 .048.162c-.443.903-2.562 1.027-3.837 1.027c-1.011 0-1.86-.135-2.162-.205z"/><path fill="#26203a" d="M12.157 11.876c-2.735 0-3.34-.66-3.303-.995h6.595v.124c.043.287-.557.87-3.292.87"/><path fill="#4470d1" d="M12.156 11.535c-1.795 0-2.195-.432-2.162-.649h4.319v.076c.027.19-.368.573-2.163.573z"/><path fill="#335ca7" d="M6.772 11.081c0-.19.287-.438.433-.54l.421.162l-.178.832a4.5 4.5 0 0 1-.654-.2a1 1 0 0 1-.022-.249z"/><path fill="#496bac" d="M7.2 11.151c0 .206.21.368.313.422c.54.092 1.805.276 2.54.265c-1.405-.2-1.783-.768-1.789-1.027l-.697-.108c-.119.06-.368.243-.368.448"/><path fill="#9ea3b6" d="m8.919 10.94l-.692-.129c.016.405.649 1.184 3.01 1.043c-1.767-.08-2.28-.643-2.323-.919z"/><path fill="url(#tokenBrandedAis2)" d="M11.146 11.854h-.93c3.665.535 6.103-.335 5.74-1.027l-.621.108c.005.865-2.79.973-4.19.919"/><path fill="url(#tokenBrandedAis3)" d="M14.94 10.99H9.334c-.589 0-2-.174-2.918-.855c-1.163-.86-.8-3.097-.67-3.578C5.874 6.08 7.074 2 11.982 2c4.914 0 6.433 4.432 6.487 5.103v.021c.103.85-.04 1.71-.411 2.481c-.411.92-2.222 1.314-3.12 1.384"/><path fill="#ffffba" d="M13.94 4.21h-3.724c-.93 0-3.021.217-3.021 2.233s1.708 4.054 4.73 4.054c3.02 0 4.778-1.8 4.778-4.054c0-1.805-1.838-2.243-2.762-2.232"/><path fill="url(#tokenBrandedAis4)" d="M13.875 4.314h-3.606c-.902 0-2.924.205-2.924 2.162c0 1.946 1.654 3.913 4.573 3.913c2.924 0 4.627-1.73 4.627-3.919c0-1.746-1.784-2.162-2.676-2.162z"/><path fill="#c9d3e8" d="M6.086 5.86c-.114.016-.303.578-.384.853a8.4 8.4 0 0 0-.13 1.438c.011.487.092.638.13.649c.216 0 .384-.649.433-1.124c.054-.47.097-1.838-.049-1.817"/><path fill="#251f38" d="M6.102 6.108c-.102.016-.27.487-.34.714c-.038.227-.119.789-.108 1.189s.075.53.108.54c.195 0 .34-.54.378-.935c.049-.389.087-1.524-.038-1.508"/><path fill="url(#tokenBrandedAis5)" d="M4.432 5.762c0 2.017.622 2.649.935 2.708c.622 0 .492-1.064.411-3.08s-.34-3.114-.513-3.114s-.827.967-.827 3.486z"/><path fill="#ffffba" d="M5.508 3.919c-.551.092-.946 0-.989 0c-.065.016-.038.086-.022.124c.054.016.206.044.46.044c.319 0 .519-.022.551-.044c.022-.021.011-.092 0-.124"/><path fill="url(#tokenBrandedAis6)" d="M4.718 7.697c.07-.194.14-.47.14-.81c0-.481-.253-.822-.421-.973c.01.81.13 1.389.281 1.783"/><path fill="#c9d3e8" d="M17.913 5.86c.118.016.308.578.389.853c.054.282.14.957.13 1.438c-.017.487-.092.638-.13.649c-.217 0-.39-.649-.433-1.124c-.054-.47-.097-1.838.044-1.817"/><path fill="#251f38" d="M17.902 6.108c.103.016.27.487.335.714c.044.227.125.789.109 1.189c-.006.4-.076.53-.108.54c-.19 0-.336-.54-.379-.935c-.043-.389-.081-1.524.043-1.508"/><path fill="url(#tokenBrandedAis7)" d="M19.567 5.762c0 2.017-.622 2.649-.93 2.708c-.622 0-.497-1.064-.41-3.08c.08-2.017.34-3.114.512-3.114c.174 0 .828.967.828 3.486"/><path fill="#ffffba" d="M18.497 3.919c.551.092.946 0 .989 0c.065.016.038.086.016.124a1.7 1.7 0 0 1-.454.044c-.319 0-.519-.022-.551-.044c-.027-.021-.011-.092 0-.124"/><path fill="url(#tokenBrandedAis8)" d="M19.28 7.697a2.4 2.4 0 0 1-.134-.81c0-.481.254-.822.421-.973a5.2 5.2 0 0 1-.286 1.783"/><path fill="url(#tokenBrandedAis9)" d="M13.773 4.427h-3.41c-.855 0-2.774.2-2.774 2.076c0 1.88 1.568 3.773 4.34 3.773c2.768 0 4.384-1.67 4.384-3.773c0-1.676-1.691-2.081-2.54-2.076"/><path fill="#483d6f" d="M15.886 8.254A8.9 8.9 0 0 1 12.091 9c-1.783 0-3.097-.286-3.902-.535c.697 1.043 1.973 1.81 3.74 1.81c1.935 0 3.303-.81 3.957-2.02"/><path fill="url(#tokenBrandedAisa)" d="M9.286 6.016h-.918a1.17 1.17 0 0 1 1.162-.93zm1.352-.924H9.627L9.417 6h1.22zM8.335 6.119h.93l-.087.378h-.94z"/><path fill="url(#tokenBrandedAisb)" d="M10.163 8.081c.647 0 1.172-.552 1.172-1.232c0-.681-.525-1.233-1.173-1.233c-.647 0-1.173.552-1.173 1.233c0 .68.526 1.232 1.173 1.232"/><path fill="url(#tokenBrandedAisc)" d="M14.07 8.081c.648 0 1.173-.552 1.173-1.232c0-.681-.525-1.233-1.173-1.233c-.647 0-1.172.552-1.172 1.233c0 .68.525 1.232 1.172 1.232"/><path fill="#ffffba" d="M8.546 4.611c-.27-.324-.595-.93-.735-1.232l.2-.157c.021.205.454.962.675 1.313c-.032.027-.102.076-.14.076m6.794-.022q.494-.524.849-1.15l-.216-.163c-.038.2-.514.892-.779 1.227a.5.5 0 0 0 .146.086"/><path fill="#28233e" d="M6.757 11.643v.125c-.054.627-.173 1.913-.173 2.016s.243.767.368 1.092c.075-.211.227-.827.227-1.6s-.281-1.406-.422-1.633"/><path fill="url(#tokenBrandedAisd)" d="M4.507 16.487c0 2.254.725 2.962 1.081 3.037c1.033 0 1.406-2.535 1.46-3.8c.124-1.356.184-4.065-.551-4.065c-.92 0-1.99 2.017-1.99 4.828"/><path fill="#829fd1" d="M4.713 16.903c0 .789.216.994.33 1c.27 0 .264-.703.227-1.054c.005-.52-.033-1.557-.227-1.557c-.238 0-.33.627-.33 1.61"/><path fill="#ffffba" d="M5.708 17.151c-.714 0-1.103.054-1.243.081l-.033-.162c.151-.027.551-.081 1.276-.081c.627 0 .973.087 1.178.135l.097.027l-.043.162l-.097-.027a4 4 0 0 0-1.135-.135"/><path fill="url(#tokenBrandedAise)" d="M19.372 16.487c0 2.254-.718 2.962-1.08 3.037c-1.028 0-1.406-2.535-1.46-3.8c-.119-1.356-.178-4.065.557-4.065c.919 0 1.983 2.017 1.983 4.828"/><path fill="#829fd1" d="M19.173 16.903c0 .789-.221.994-.335 1c-.265 0-.26-.703-.227-1.054c0-.52.038-1.557.227-1.557c.243 0 .335.627.335 1.61"/><path fill="#ffffba" d="M18.172 17.151c.719 0 1.108.054 1.243.081l.038-.162c-.151-.027-.557-.081-1.281-.081c-.627 0-.968.087-1.178.135l-.092.027l.037.162l.098-.027c.216-.054.53-.135 1.135-.135"/><path fill="url(#tokenBrandedAisf)" d="m10.086 13.605l-.74 1.827h.432l.735-1.746a.11.11 0 0 1 .097-.059a.11.11 0 0 1 .097.06l.692 1.745h.444l-.72-1.821a.56.56 0 0 0-.518-.346a.55.55 0 0 0-.52.34m2.048-.34h.444v2.167h-.444zm.898 2.178v-.405h1.297c.151 0 .276-.12.276-.26a.264.264 0 0 0-.27-.254h-.703c-.357 0-.649-.275-.649-.616s.292-.616.649-.616h1.184v.384h-1.163c-.146 0-.27.113-.27.254c0 .135.124.248.27.248h.665c.373 0 .67.287.67.633a.65.65 0 0 1-.67.632z"/><defs><linearGradient id="tokenBrandedAis0" x1="17.254" x2="8.264" y1="11.849" y2="18.827" gradientUnits="userSpaceOnUse"><stop stop-color="#89b9ed"/><stop offset=".89" stop-color="#1b5ccf"/><stop offset="1" stop-color="#6095d0"/></linearGradient><linearGradient id="tokenBrandedAis1" x1="8.892" x2="16.4" y1="11.978" y2="11.978" gradientUnits="userSpaceOnUse"><stop stop-color="#6192e0"/><stop offset="1" stop-color="#97c1ef"/></linearGradient><linearGradient id="tokenBrandedAis2" x1="10.741" x2="15.805" y1="12.092" y2="11.573" gradientUnits="userSpaceOnUse"><stop stop-color="#b9c5de"/><stop offset="1" stop-color="#667ab0"/></linearGradient><linearGradient id="tokenBrandedAis3" x1="12.043" x2="12.043" y1="2" y2="10.989" gradientUnits="userSpaceOnUse"><stop stop-color="#72cdff"/><stop offset=".84" stop-color="#3856dc"/><stop offset=".98" stop-color="#4a6dd8"/></linearGradient><linearGradient id="tokenBrandedAis4" x1="11.95" x2="11.95" y1="4.308" y2="10.389" gradientUnits="userSpaceOnUse"><stop stop-color="#8091bf"/><stop offset="1" stop-color="#d2dbed"/></linearGradient><linearGradient id="tokenBrandedAis5" x1="5.14" x2="5.14" y1="2.276" y2="8.47" gradientUnits="userSpaceOnUse"><stop stop-color="#72cdff"/><stop offset="1" stop-color="#252b8c"/></linearGradient><linearGradient id="tokenBrandedAis6" x1="4.648" x2="4.648" y1="5.914" y2="7.697" gradientUnits="userSpaceOnUse"><stop stop-color="#32469f"/><stop offset="1" stop-color="#5ea3e0"/></linearGradient><linearGradient id="tokenBrandedAis7" x1="18.858" x2="18.858" y1="2.276" y2="8.47" gradientUnits="userSpaceOnUse"><stop stop-color="#72cdff"/><stop offset="1" stop-color="#252b8c"/></linearGradient><linearGradient id="tokenBrandedAis8" x1="19.357" x2="19.357" y1="5.914" y2="7.697" gradientUnits="userSpaceOnUse"><stop stop-color="#32469f"/><stop offset="1" stop-color="#5ea3e0"/></linearGradient><linearGradient id="tokenBrandedAis9" x1="7.589" x2="16.157" y1="6.324" y2="6.324" gradientUnits="userSpaceOnUse"><stop stop-color="#27213b"/><stop offset=".61" stop-color="#4a3f73"/><stop offset="1" stop-color="#28223c"/></linearGradient><linearGradient id="tokenBrandedAisa" x1="9.438" x2="9.27" y1="5.086" y2="6.811" gradientUnits="userSpaceOnUse"><stop stop-color="#9490a1"/><stop offset="1" stop-color="#9490a1" stop-opacity="0"/></linearGradient><linearGradient id="tokenBrandedAisb" x1="10.162" x2="10.162" y1="5.616" y2="8.081" gradientUnits="userSpaceOnUse"><stop stop-color="#fff962"/><stop offset="1" stop-color="#fcbe43"/></linearGradient><linearGradient id="tokenBrandedAisc" x1="14.07" x2="14.07" y1="5.616" y2="8.081" gradientUnits="userSpaceOnUse"><stop stop-color="#fff962"/><stop offset="1" stop-color="#fcbe43"/></linearGradient><linearGradient id="tokenBrandedAisd" x1="5.815" x2="5.815" y1="11.659" y2="19.524" gradientUnits="userSpaceOnUse"><stop stop-color="#87b7fd"/><stop offset="1" stop-color="#325ca9"/></linearGradient><linearGradient id="tokenBrandedAise" x1="18.064" x2="18.064" y1="11.659" y2="19.524" gradientUnits="userSpaceOnUse"><stop stop-color="#87b7fd"/><stop offset="1" stop-color="#325ca9"/></linearGradient><linearGradient id="tokenBrandedAisf" x1="9.686" x2="14.572" y1="15.092" y2="15.092" gradientUnits="userSpaceOnUse"><stop stop-color="#c6ad40"/><stop offset="1" stop-color="#ffe45b"/></linearGradient></defs></g></svg>