<svg xmlns="http://www.w3.org/2000/svg" width="25px" height="25px" viewBox="0 0 24 24"><g fill="none" stroke="currentColor" stroke-linecap="round" stroke-linejoin="round" stroke-width="1.5" color="currentColor"><path d="M15 10.75a3 3 0 1 1-6 0a3 3 0 0 1 6 0"/><path d="m20.068 6.492l-.43-.75c-.325-.566-.488-.85-.765-.963s-.59-.024-1.216.155l-1.064.3c-.4.093-.82.04-1.184-.148l-.294-.17a1.75 1.75 0 0 1-.687-.847l-.291-.872c-.192-.578-.287-.867-.515-1.032S13.092 2 12.486 2h-.972c-.605 0-.908 0-1.136.165s-.323.454-.515 1.032l-.29.872a1.75 1.75 0 0 1-.688.847l-.294.17c-.365.188-.784.24-1.184.148l-1.064-.3c-.626-.179-.94-.268-1.216-.155c-.277.113-.44.397-.765.963l-.43.75c-.305.531-.458.797-.428 1.08s.233.51.642.966l.899 1.009c.22.279.375.765.375 1.203s-.156.924-.375 1.203l-.9 1.009c-.408.456-.612.683-.641.966s.123.549.428 1.08l.43.75c.325.566.488.85.765.963s.59.024 1.216-.155l1.064-.3c.4-.093.82-.04 1.184.148l.294.17c.313.201.554.498.687.847l.291.872c.192.578.287.867.515 1.032s.53.165 1.136.165h.972c.605 0 .908 0 1.136-.165s.323-.454.515-1.032l.291-.872a1.74 1.74 0 0 1 .687-.847l.294-.17a1.73 1.73 0 0 1 1.184-.148l1.064.3c.626.179.94.268 1.216.155c.277-.113.44-.397.765-.963l.43-.75c.305-.531.458-.797.428-1.08s-.233-.51-.642-.966l-.899-1.009c-.22-.28-.375-.765-.375-1.203c0-.437.156-.924.375-1.203l.9-1.009c.408-.456.612-.683.641-.966s-.122-.549-.428-1.08"/><path d="M22 18c0 .93 0 1.395-.102 1.776a3 3 0 0 1-2.122 2.122C19.396 22 18.93 22 18 22H6c-.93 0-1.395 0-1.776-.102a3 3 0 0 1-2.122-2.122C2 19.396 2 18.93 2 18"/></g></svg>